HIERARCHY
ROOT Hips
{
  OFFSET 0 0.240689 0
  CHANNELS 6 Xposition Yposition Zposition Zrotation Xrotation Yrotation
  JOINT Bip01_Spine0
  {
    OFFSET 0 -24.7459 49.7988
    CHANNELS 6 Xposition Yposition Zposition Zrotation Xrotation Yrotation
    JOINT Bip01_Pelvis
    {
      OFFSET 0 0 0
      CHANNELS 6 Xposition Yposition Zposition Zrotation Xrotation Yrotation
      JOINT Bip01_Spine0_Tail
      {
        OFFSET -6.47486 -3.86022 0
        CHANNELS 6 Xposition Yposition Zposition Zrotation Xrotation Yrotation
        JOINT Bip01_Spine0_Tail1
        {
          OFFSET 10.3837 -0.00825882 0
          CHANNELS 6 Xposition Yposition Zposition Zrotation Xrotation Yrotation
          JOINT Bip01_Spine0_Tail2
          {
            OFFSET 10.3837 -0.00826263 0
            CHANNELS 6 Xposition Yposition Zposition Zrotation Xrotation Yrotation
            JOINT Bip01_Spine0_Tail3
            {
              OFFSET 10.3837 -0.00825882 0
              CHANNELS 6 Xposition Yposition Zposition Zrotation Xrotation Yrotation
              JOINT Bip01_Spine0_Tail4
              {
                OFFSET 10.3837 -0.00826263 0
                CHANNELS 6 Xposition Yposition Zposition Zrotation Xrotation Yrotation
                End Site
                {
                  OFFSET 0 0 0
                }
              }
            }
          }
        }
      }
      JOINT Bip01_R_Thigh
      {
        OFFSET 0 -1.52588e-005 -8.75617
        CHANNELS 6 Xposition Yposition Zposition Zrotation Xrotation Yrotation
        JOINT Bip01_R_Calf
        {
          OFFSET 19.7638 0 0
          CHANNELS 6 Xposition Yposition Zposition Zrotation Xrotation Yrotation
          JOINT Bip01_R_Foot
          {
            OFFSET 18.6534 0 0
            CHANNELS 6 Xposition Yposition Zposition Zrotation Xrotation Yrotation
            JOINT Bip01_R_Toe0
            {
              OFFSET 5.09145 13.9567 0
              CHANNELS 6 Xposition Yposition Zposition Zrotation Xrotation Yrotation
              JOINT Bip01_R_Toe01
              {
                OFFSET 4.28803 0 0
                CHANNELS 6 Xposition Yposition Zposition Zrotation Xrotation Yrotation
                JOINT Bip01_R_Toe02
                {
                  OFFSET 3.85801 0 0
                  CHANNELS 6 Xposition Yposition Zposition Zrotation Xrotation Yrotation
                  End Site
                  {
                    OFFSET 0 0 0
                  }
                }
              }
            }
          }
        }
      }
      JOINT Bip01_L_Thigh
      {
        OFFSET 0 1.52588e-005 8.75617
        CHANNELS 6 Xposition Yposition Zposition Zrotation Xrotation Yrotation
        JOINT Bip01_L_Calf
        {
          OFFSET 19.7638 0 0
          CHANNELS 6 Xposition Yposition Zposition Zrotation Xrotation Yrotation
          JOINT Bip01_L_Foot
          {
            OFFSET 18.6534 0 0
            CHANNELS 6 Xposition Yposition Zposition Zrotation Xrotation Yrotation
            JOINT Bip01_L_Toe0
            {
              OFFSET 5.09144 13.9567 0
              CHANNELS 6 Xposition Yposition Zposition Zrotation Xrotation Yrotation
              JOINT Bip01_L_Toe01
              {
                OFFSET 4.28802 0 0
                CHANNELS 6 Xposition Yposition Zposition Zrotation Xrotation Yrotation
                JOINT Bip01_L_Toe02
                {
                  OFFSET 3.85801 0 0
                  CHANNELS 6 Xposition Yposition Zposition Zrotation Xrotation Yrotation
                  End Site
                  {
                    OFFSET 0 0 0
                  }
                }
              }
            }
          }
        }
      }
      JOINT Bip01_Spine
      {
        OFFSET 9.14835 -0.00640869 -1.1e-005
        CHANNELS 6 Xposition Yposition Zposition Zrotation Xrotation Yrotation
        JOINT Bip01_Spine1
        {
          OFFSET 8.04366 -0.00638199 0
          CHANNELS 6 Xposition Yposition Zposition Zrotation Xrotation Yrotation
          JOINT Bip01_Spine2
          {
            OFFSET 8.04367 -0.00639343 0
            CHANNELS 6 Xposition Yposition Zposition Zrotation Xrotation Yrotation
            JOINT Bip01_Spine3
            {
              OFFSET 8.04304 -0.00831222 0
              CHANNELS 6 Xposition Yposition Zposition Zrotation Xrotation Yrotation
              JOINT Bip01_Neck
              {
                OFFSET 10.6685 1.06813 0
                CHANNELS 6 Xposition Yposition Zposition Zrotation Xrotation Yrotation
                JOINT Bip01_R_Clavicle
                {
                  OFFSET -3.21661 -4.89635 -9.04802
                  CHANNELS 6 Xposition Yposition Zposition Zrotation Xrotation Yrotation
                  JOINT Bip01_R_UpperArm
                  {
                    OFFSET 19.0492 0 0
                    CHANNELS 6 Xposition Yposition Zposition Zrotation Xrotation Yrotation
                    JOINT Bip01_R_Forearm
                    {
                      OFFSET 10.3706 0 0
                      CHANNELS 6 Xposition Yposition Zposition Zrotation Xrotation Yrotation
                      JOINT Bip01_R_Hand
                      {
                        OFFSET 22.8632 0 0
                        CHANNELS 6 Xposition Yposition Zposition Zrotation Xrotation Yrotation
                        JOINT Bip01_R_Finger0
                        {
                          OFFSET 6.48259 0.103651 0.504496
                          CHANNELS 6 Xposition Yposition Zposition Zrotation Xrotation Yrotation
                          JOINT Bip01_R_Finger01
                          {
                            OFFSET 3.66847 0 0
                            CHANNELS 6 Xposition Yposition Zposition Zrotation Xrotation Yrotation
                            End Site
                            {
                              OFFSET 0 0 0
                            }
                          }
                        }
                      }
                    }
                  }
                }
                JOINT Bip01_L_Clavicle
                {
                  OFFSET -3.21661 -4.89641 9.04797
                  CHANNELS 6 Xposition Yposition Zposition Zrotation Xrotation Yrotation
                  JOINT Bip01_L_UpperArm
                  {
                    OFFSET 19.0492 0 0
                    CHANNELS 6 Xposition Yposition Zposition Zrotation Xrotation Yrotation
                    JOINT Bip01_L_Forearm
                    {
                      OFFSET 10.3706 0 0
                      CHANNELS 6 Xposition Yposition Zposition Zrotation Xrotation Yrotation
                      JOINT Bip01_L_Hand
                      {
                        OFFSET 22.8631 0 0
                        CHANNELS 6 Xposition Yposition Zposition Zrotation Xrotation Yrotation
                        JOINT Bip01_L_Finger0
                        {
                          OFFSET 6.48257 0.103655 -0.504492
                          CHANNELS 6 Xposition Yposition Zposition Zrotation Xrotation Yrotation
                          JOINT Bip01_L_Finger01
                          {
                            OFFSET 3.66844 0 0
                            CHANNELS 6 Xposition Yposition Zposition Zrotation Xrotation Yrotation
                            End Site
                            {
                              OFFSET 0 0 0
                            }
                          }
                        }
                      }
                    }
                  }
                }
                JOINT Bip01_Neck1
                {
                  OFFSET 7.52459 -0.00656509 0
                  CHANNELS 6 Xposition Yposition Zposition Zrotation Xrotation Yrotation
                  JOINT Bip01_Neck2
                  {
                    OFFSET 8.4783 -0.00588226 0
                    CHANNELS 6 Xposition Yposition Zposition Zrotation Xrotation Yrotation
                    JOINT Bip01_Head
                    {
                      OFFSET 8.41606 0 0
                      CHANNELS 6 Xposition Yposition Zposition Zrotation Xrotation Yrotation
                      JOINT EyesBlue
                      {
                        OFFSET 0 0 0
                        CHANNELS 6 Xposition Yposition Zposition Zrotation Xrotation Yrotation
                        JOINT EyesBlue_2
                        {
                          OFFSET 0 -0.500007 0
                          CHANNELS 6 Xposition Yposition Zposition Zrotation Xrotation Yrotation
                          End Site
                          {
                            OFFSET 0 0 0
                          }
                        }
                      }
                      JOINT Bip01_Head2_Eyeleds
                      {
                        OFFSET 6.52751 7.61746 2.2e-005
                        CHANNELS 6 Xposition Yposition Zposition Zrotation Xrotation Yrotation
                        End Site
                        {
                          OFFSET 0 0 0
                        }
                      }
                      JOINT Bip01_Head_Muzzle
                      {
                        OFFSET 2.88628 13.9448 3.88994
                        CHANNELS 6 Xposition Yposition Zposition Zrotation Xrotation Yrotation
                        End Site
                        {
                          OFFSET 0 0 0
                        }
                      }
                      JOINT Bip01_Head1_Jaw
                      {
                        OFFSET 0.271065 1.32405 0
                        CHANNELS 6 Xposition Yposition Zposition Zrotation Xrotation Yrotation
                        JOINT _Bip01_Head11_TungeControler
                        {
                          OFFSET 4.61616 5.82872 0
                          CHANNELS 6 Xposition Yposition Zposition Zrotation Xrotation Yrotation
                          JOINT _Bip01_Ponytail3_tunge
                          {
                            OFFSET 5.17785 2.98805 0
                            CHANNELS 6 Xposition Yposition Zposition Zrotation Xrotation Yrotation
                            JOINT Bip01_Ponytail31
                            {
                              OFFSET 5.57569 0 0
                              CHANNELS 6 Xposition Yposition Zposition Zrotation Xrotation Yrotation
                              JOINT Bip01_Ponytail32
                              {
                                OFFSET 2.93165 0 0
                                CHANNELS 6 Xposition Yposition Zposition Zrotation Xrotation Yrotation
                                JOINT Bip01_Ponytail3Nub
                                {
                                  OFFSET 3.30155 0 0
                                  CHANNELS 6 Xposition Yposition Zposition Zrotation Xrotation Yrotation
                                  End Site
                                  {
                                    OFFSET 0 0 0
                                  }
                                }
                              }
                            }
                          }
                        }
                        JOINT Bip01_Head_JawNub
                        {
                          OFFSET 15.5776 -0.000389099 0
                          CHANNELS 6 Xposition Yposition Zposition Zrotation Xrotation Yrotation
                          End Site
                          {
                            OFFSET 0 0 0
                          }
                        }
                      }
                      JOINT Bip01_Ponytail2
                      {
                        OFFSET 9.40334 1.03973 -6.51764
                        CHANNELS 6 Xposition Yposition Zposition Zrotation Xrotation Yrotation
                        JOINT Bip01_Ponytail21
                        {
                          OFFSET 2.77018 -0.00640106 1.33514e-005
                          CHANNELS 6 Xposition Yposition Zposition Zrotation Xrotation Yrotation
                          End Site
                          {
                            OFFSET 0 0 0
                          }
                        }
                      }
                      JOINT Bip01_Ponytail1
                      {
                        OFFSET 9.40368 1.03969 6.51768
                        CHANNELS 6 Xposition Yposition Zposition Zrotation Xrotation Yrotation
                        JOINT Bip01_Ponytail11
                        {
                          OFFSET 2.77018 -0.00640487 0
                          CHANNELS 6 Xposition Yposition Zposition Zrotation Xrotation Yrotation
                          End Site
                          {
                            OFFSET 0 0 0
                          }
                        }
                      }
                    }
                  }
                }
              }
            }
          }
        }
      }
    }
  }
}
MOTION
Frames:	4
Frame Time:	0.0333333
5.43222 0 6.37613 -0 -90 -0 -0.123117 -26.836 47.1705 90 2.9266e-005 95.7937 0 0 0 -89.9999 -3.72569e-005 -81.6335 -6.40582 -3.85984 -0.942129 138.657 -5.54783 6.27132 10.3808 -0.007858 6.3e-005 -23.1034 0.00138744 0.00235822 10.3822 -0.008049 3.6e-005 -6.80002 0.00475039 4.20296 10.3856 -0.007804 0.000128 16.8202 0.00370529 4.20265 10.381 -0.00793 1.16456e-010 -16 -3.51905e-006 0.000102768 1.1e-005 -1.5e-005 -8.75617 -121.738 -2.1892 -177.847 19.7638 -3e-006 3.55271e-015 -86.3906 6.61111e-005 0.00211907 18.6534 -1e-006 3.55271e-015 -9.95121 7.47109 1.92627 5.09143 13.9567 6.23107e-007 108.395 3.15684 1.51489 4.288 -3e-006 3e-006 51.7344 3.35206e-005 1.3385e-005 3.85799 -1e-006 7.74492e-013 -23.5 0.000640812 0.00100358 -1.1e-005 1.1e-005 8.75617 -124.815 6.56699 -165.422 19.7638 8.88178e-015 -1.77636e-015 -75.2239 0.000203173 0.00148741 18.6534 7e-006 -2.84217e-014 -2.59631 0.880592 -1.37243 5.09143 13.9567 -2.72035e-008 98.2196 -5.41036 -0.315121 4.288 0 -1e-006 54.5706 3.46449e-006 2.12971e-007 3.85799 5.32907e-015 -3.55271e-015 -45.0006 0.000496751 0.00120067 9.05061 -0.00632 1.33115 -2.20993 0.325944 -8.36187 8.04402 -0.006393 -2.66454e-015 2.1859 -6.04676e-005 -0.00184683 8.04441 -0.006282 -1.6e-005 5.70091 -2.48513 0.024981 8.04256 -0.008274 8.88178e-016 -6.52928 0.000216961 -0.00180753 10.6677 1.0684 0.000163 -18.5485 0.00149022 0.00201185 -2.75241 -5.17009 -9.0479 -161.465 -82.5832 124.213 19.0492 1e-006 3.55271e-015 96.2505 -22.5843 -83.3446 10.3706 1e-006 1e-006 -123.852 0.000906967 -0.00287271 22.8631 -2e-006 3e-006 26.0679 21.3635 5.74826 6.48255 0.103653 0.504496 -34.4481 -11.0824 -10.9006 3.66843 1e-006 3e-006 40.107 6.2645e-006 1.02299e-005 -2.75223 -5.17001 9.04777 -161.474 80.2457 -121.84 19.0492 -7.10543e-015 -7.10543e-015 93.0707 18.4223 100.859 10.3706 -1.06581e-014 -5.32907e-015 -108.051 -0.000646139 0.00406073 22.8631 -1.77636e-014 0 -15.7068 -17.4312 -3.18927 6.48256 0.10365 -0.504496 -52.5423 7.13949 13.7948 3.66844 -6.88338e-015 0 40.107 3.21886e-005 -4.49801e-005 7.52861 -0.006183 2.7e-005 -9.24367 0.000435749 0.000934038 8.47659 -0.006446 2.8e-005 1.49487 0.00142373 0.0017273 8.41605 -1.42109e-014 7.10543e-015 -59.268 -0.0496334 2.48642 -3e-006 3e-006 -3e-006 -23.1098 1.37701e-015 90 -1.44561e-007 -0.500004 8.08526e-011 180 90 -90 0 0 0 -106.306 7.01671e-015 -180 4.69909 13.8018 3.88994 -22.989 1.37021e-015 90 0 0 0 -85.3358 -7.01671e-015 -180 0 0 0 -120.289 4.5173e-007 -2.0378e-005 0 0 0 133.74 -8.3802e-006 4.84868e-006 0 0 0 1.83152 -1.57991e-005 3.49295e-007 0 0 0 -17.65 5.02847e-006 1.47833e-006 0 0 0 -26.1943 -1.83641e-007 -1.6873e-007 15.5776 -0.000396 -7e-006 -1.59028e-015 7.76503e-019 -0 9.40535 1.041 -6.51521 2.58545 -31.4466 51.8949 2.76632 -0.004709 -0.002376 -16.2033 14.5321 16.0464 9.4057 1.04106 6.51531 2.58431 31.4461 -51.894 2.76632 -0.004709 0.002403 -16.2036 -14.5307 -16.0454 
4.8879 0 5.73723 -0 -90 -0 -0.139254 -26.5981 47.497 90 2.18456e-005 95.1337 0 0 0 -90 -2.01604e-005 -81.5393 -6.40423 -3.85984 -0.952629 138.077 -5.67426 6.2842 10.3808 -0.007858 6.3e-005 -23.8618 0.0013561 0.00237638 10.3822 -0.008049 3.6e-005 -6.80002 0.00475039 4.20296 10.3856 -0.007804 0.000128 16.8202 0.00370519 4.20265 10.381 -0.00793 1.02493e-010 -16 -3.4406e-006 0.000102796 1.1e-005 -1.5e-005 -8.75617 -124.115 -4.58173 -176.162 19.7638 -3e-006 -3.55271e-015 -83.761 0.000114605 0.00211916 18.6534 -1e-006 1.06581e-014 -22.8032 10.2026 2.92586 5.09143 13.9567 2.07078e-006 113.086 3.11327 1.62638 4.288 -3e-006 3e-006 61.4198 2.13901e-005 1.49794e-005 3.85799 -1e-006 5.18696e-013 -23.5 0.00066406 0.00100937 -1.1e-005 1.1e-005 8.75617 -122.981 6.8463 -166.424 19.7638 -1.06581e-014 -3.55271e-015 -74.3718 0.000225261 0.00148423 18.6534 7e-006 -1.95399e-014 -4.46142 0.889033 -1.82097 5.09143 13.9567 -2.6123e-008 99.9451 -4.85903 0.359443 4.288 3.55271e-015 -1e-006 56.4254 2.47732e-006 2.79735e-007 3.85799 -7.99361e-015 1.77636e-015 -45.0006 0.000497693 0.00120135 9.04848 -0.00632 1.34599 -1.94574 0.290425 -8.45879 8.04402 -0.006393 -8.88178e-016 1.9593 -0.000103604 -0.00332151 8.04441 -0.006282 -1.6e-005 5.54304 -3.79784 0.0326011 8.04256 -0.008274 -8.88178e-016 -6.36685 0.00037241 -0.0032472 10.6677 1.0684 0.000163 -16.7053 0.00155416 0.00196287 -2.91733 -5.07869 -9.0479 -163.309 -83.1387 123.429 19.0492 1e-006 3.55271e-015 94.6044 -22.2144 -84.5933 10.3706 1e-006 1e-006 -120.85 0.000817982 -0.00287837 22.8631 -2e-006 3e-006 25.2816 20.2338 5.75069 6.48255 0.103653 0.504496 -37.2966 -10.5299 -11.4348 3.66843 1e-006 3e-006 40.107 6.14621e-006 1.04765e-005 -2.91714 -5.07855 9.04777 -163.315 80.8233 -121.08 19.0492 7.10543e-015 -2.13163e-014 94.4139 18.1869 99.534 10.3706 -7.10543e-015 -8.88179e-016 -106.538 -0.000591423 0.00406167 22.8631 7.10542e-015 0 -14.7727 -16.618 -2.18541 6.48256 0.10365 -0.504496 -55.176 6.48973 14.1074 3.66844 2.22045e-016 0 40.107 3.19789e-005 -4.51429e-005 7.52861 -0.006183 2.7e-005 -9.26139 0.000435461 0.000934172 8.47659 -0.006446 2.8e-005 2.63961 0.00145795 0.00169851 8.41605 1.42109e-014 5.32907e-015 -60.2375 0.0563412 3.79898 -3e-006 3e-006 -3e-006 -23.1098 1.37701e-015 90 -1.43698e-007 -0.500004 1.78417e-010 180 90 -90 0 0 0 -107.032 7.01671e-015 -180 4.51744 13.8161 3.88994 -22.989 1.37021e-015 90 0 0 0 -85.3358 -7.01671e-015 -180 0 0 0 -120.289 5.92989e-007 -2.04977e-005 0 0 0 133.74 -1.47115e-005 4.90022e-006 0 0 0 1.83152 6.52505e-005 1.45366e-007 0 0 0 -17.65 -6.60028e-005 -2.11624e-005 0 0 0 -26.1943 -2.3252e-007 -2.24269e-007 15.5776 -0.000396 -7e-006 6.36111e-015 7.76503e-019 -0 9.40535 1.041 -6.51521 -1.70512 -26.6509 46.7855 2.76632 -0.004709 -0.002376 -13.8337 13.156 13.9471 9.4057 1.04106 6.51531 -1.70497 26.6512 -46.7851 2.76632 -0.004709 0.002403 -13.8338 -13.155 -13.9463 
4.34358 0 5.09832 -0 -90 -0 -0.155544 -26.3572 47.8275 89.9999 3.92123e-005 94.4663 0 0 0 -90 -3.55699e-005 -81.9171 -6.41017 -3.85984 -0.910358 137.455 -5.48341 5.94495 10.3808 -0.007858 6.3e-005 -24.6289 0.00132416 0.00239432 10.3822 -0.008049 3.6e-005 -6.80002 0.00475039 4.20296 10.3856 -0.007804 0.000128 16.8202 0.00370509 4.20265 10.381 -0.00793 8.96003e-011 -16 -3.37085e-006 0.000102822 1.1e-005 -1.5e-005 -8.75617 -123.368 -5.35112 -176.329 19.7638 -3e-006 3.55271e-015 -81.6815 0.000152735 0.0021193 18.6534 -1e-006 3.55271e-015 -27.8196 10.5328 3.76066 5.09143 13.9567 2.77982e-006 114.82 3.09951 1.66845 4.288 -3e-006 3e-006 65 2.57211e-005 1.96114e-005 3.85799 -1e-006 4.15668e-013 -23.5 0.000672521 0.00101166 -1.1e-005 1.1e-005 8.75617 -121.233 6.68538 -167.695 19.7638 -1.77636e-015 5.32907e-015 -73.3976 0.000250447 0.00148019 18.6534 7e-006 -2.30926e-014 -6.62596 0.881106 -2.25629 5.09143 13.9567 -2.51187e-008 101.742 -4.30155 1.01167 4.288 -1.42109e-014 -1e-006 58.2018 1.69612e-006 3.43586e-007 3.85799 1.59872e-014 -5.32907e-015 -45.0006 0.000498503 0.00120188 9.05697 -0.00632 1.28627 -1.68546 0.240379 -8.08281 8.04402 -0.006393 1.77636e-015 1.73147 -0.000123416 -0.00441423 8.04441 -0.006282 -1.6e-005 5.33401 -5.01335 0.0343637 8.04256 -0.008274 -1.77636e-015 -6.20013 0.000483938 -0.00436187 10.6677 1.0684 0.000163 -14.6898 0.00162223 0.001907 -3.09425 -4.9728 -9.0479 -165.324 -83.5917 122.541 19.0492 1e-006 1.06581e-014 92.5707 -20.4796 -86.8487 10.3706 1e-006 1e-006 -116.009 0.000678443 -0.00288329 22.8631 -2e-006 3e-006 22.7302 18.534 5.92084 6.48255 0.103653 0.504496 -41.0543 -9.75981 -12.0961 3.66843 1e-006 3e-006 40.107 5.91492e-006 1.07712e-005 -3.0941 -4.97265 9.04777 -165.328 81.4009 -120.321 19.0492 -3.55271e-015 7.10543e-015 95.6803 17.5546 98.227 10.3706 0 -8.88179e-016 -104.524 -0.000528467 0.0040619 22.8631 3.55271e-015 -9.76996e-015 -13.9366 -15.8288 -1.3146 6.48256 0.10365 -0.504496 -57.8045 5.82599 14.3894 3.66844 6.66133e-015 -6.21725e-015 40.107 3.04345e-005 -4.40114e-005 7.52861 -0.006183 2.7e-005 -8.97023 0.000440202 0.000931948 8.47659 -0.006446 2.8e-005 4.02762 0.00149867 0.0016627 8.41605 -1.42109e-014 1.77636e-015 -61.7857 0.262433 5.00679 -3e-006 3e-006 -3e-006 -23.1098 1.37701e-015 90 -1.43116e-007 -0.500004 2.88296e-010 180 90 -90 0 0 0 -107.758 7.01671e-015 -180 4.3358 13.8305 3.88994 -22.989 1.37021e-015 90 0 0 0 -85.3358 -7.01671e-015 -180 0 0 0 -120.289 6.87479e-007 -2.05598e-005 0 0 0 133.74 -1.60427e-005 4.94228e-006 0 0 0 1.83152 3.6196e-006 1.01532e-007 0 0 0 -17.65 -5.8973e-006 -2.06019e-006 0 0 0 -26.1943 -2.51018e-007 -2.54973e-007 15.5776 -0.000396 -7e-006 6.36111e-015 0 9.31803e-018 9.40535 1.041 -6.51521 -5.39702 -21.4942 42.2177 2.76632 -0.004709 -0.002376 -11.5037 11.6806 11.8959 9.4057 1.04106 6.51531 -5.39646 21.4962 -42.2182 2.76632 -0.004709 0.002403 -11.5033 -11.6799 -11.8946 
3.79928 0 4.45945 -0 -90 -0 -0.171763 -26.1104 48.1659 89.9999 3.4228e-005 93.7829 0 0 0 -89.9999 -3.02208e-005 -82.8817 -6.42415 -3.85984 -0.802288 136.781 -4.88617 5.18014 10.3808 -0.007858 6.3e-005 -25.4143 0.00129122 0.00241225 10.3822 -0.008049 3.6e-005 -6.80002 0.00475039 4.20296 10.3856 -0.007804 0.000128 16.8202 0.00370501 4.20265 10.381 -0.00793 7.74936e-011 -16 -3.30828e-006 0.000102846 1.1e-005 -1.5e-005 -8.75617 -120.221 -5.20966 -177.917 19.7638 -3e-006 3.55271e-015 -79.6717 0.00019049 0.00211935 18.6534 -1e-006 1.95399e-014 -27.496 9.09734 4.20231 5.09143 13.9567 2.60496e-006 114.82 3.09951 1.66845 4.288 -3e-006 3e-006 65 2.51329e-005 1.94627e-005 3.85799 -1e-006 4.0501e-013 -23.5 0.000672335 0.00101192 -1.1e-005 1.1e-005 8.75617 -119.592 5.96169 -169.27 19.7638 -7.10543e-015 5.32907e-015 -72.3117 0.000278434 0.00147518 18.6534 7e-006 -1.95399e-014 -9.15798 0.853756 -2.68819 5.09143 13.9567 -2.36043e-008 103.667 -3.72876 1.65036 4.288 -3.55271e-015 -1e-006 59.8827 1.07716e-006 4.05452e-007 3.85799 -8.88179e-016 0 -45.0006 0.000499209 0.0012023 9.07684 -0.00632 1.13357 -1.42419 0.178838 -7.11828 8.04402 -0.006393 2.22045e-015 1.50293 -0.000110107 -0.00457856 8.04441 -0.006282 -1.6e-005 5.02873 -5.95233 0.0270385 8.04256 -0.008274 1.77636e-015 -6.02401 0.000487731 -0.00452636 10.6677 1.0684 0.000163 -12.5012 0.00169388 0.00184366 -3.28212 -4.85092 -9.0479 -167.513 -83.9599 121.54 19.0492 1e-006 7.10543e-015 90.4953 -17.4309 -89.8093 10.3706 1e-006 1e-006 -109.386 0.000495053 -0.00288517 22.8631 -2e-006 3e-006 18.5526 16.2667 6.12742 6.48255 0.103653 0.504496 -45.705 -8.74469 -12.8437 3.66843 1e-006 3e-006 40.107 5.48705e-006 1.12355e-005 -3.282 -4.85082 9.04777 -167.515 81.9896 -119.547 19.0492 -8.88178e-016 0 96.56 16.3836 97.1034 10.3706 -7.10543e-015 3.55271e-015 -101.734 -0.000411379 0.00407076 22.8631 7.10542e-015 -1.06581e-014 -13.2762 -14.9808 -0.652715 6.48256 0.10365 -0.504496 -60.4777 5.13684 14.6448 3.66844 -1.55431e-014 -5.32907e-015 40.107 2.68516e-005 -4.0924e-005 7.52861 -0.006183 2.7e-005 -8.43213 0.000448935 0.000927772 8.47659 -0.006446 2.8e-005 5.63317 0.00154467 0.00162006 8.41605 0 -1.77636e-015 -63.7753 0.55558 5.92413 -3e-006 3e-006 -3e-006 -23.1098 1.37701e-015 90 -1.42938e-007 -0.500004 3.67663e-010 180 90 -90 0 0 0 -108.483 7.01671e-015 -180 4.15416 13.8448 3.88994 -22.989 1.37021e-015 90 0 0 0 -85.3358 -7.01671e-015 -180 0 0 0 -120.289 7.19205e-007 -2.0557e-005 0 0 0 133.74 -1.68357e-005 4.96641e-006 0 0 0 1.83152 1.35252e-006 7.54518e-008 0 0 0 -17.65 -2.95627e-006 -1.12551e-006 0 0 0 -26.1943 -2.3891e-007 -2.56497e-007 15.5776 -0.000396 -7e-006 3.18055e-015 4.65902e-018 -0 9.40535 1.041 -6.51521 -8.60444 -15.9633 38.0539 2.76632 -0.004709 -0.002376 -9.18706 10.0885 9.87123 9.4057 1.04106 6.51531 -8.60411 15.9659 -38.0537 2.76632 -0.004709 0.002403 -9.18706 -10.0875 -9.86927 
